CLS
PRINT
PRINT "  ÉÍÍÍÍÍÍÍÍÍÍÍÍÍÍÍ»"
PRINT "  º Cat333Pok‚mon º"
PRINT "  ÈÍÑÍÍÍÍÍÍÍÍÍÍÍÑÍ¼"
PRINT "    ³  ÉÍÍÍÍÍ»  ³  "
PRINT "  ÉÍÏÍÍ¼ PSY ÈÍÍÏÍ»"
PRINT "  º GANGNAM STYLE º"
PRINT "  ÈÍÍÍÍÍÍÍÍÍÍÍÍÍÍÍ¼"

PLAY "T132MNO1L8B.>L16BP8L8BP16L64MLB-AG+GMNL8BBMLL64B>CC+DDDDDMN<"
PLAY "L8<B.>L16BP8L8BB-AG+G"
PLAY "T132MNO1L8B.>L16BP8L8BP16L64MLB-AG+GMNL8BBMLL64B>CC+DDDDDMN<"
PLAY "L8<B.>L16BP8L8BB-AG+G"
PLAY "T132MNO1L8B.>L16BP8L8BP16L64MLB-AG+GMNL8BBMLL64B>CC+DDDDDMN<"
PLAY "L8<B.>L16BP8L8BB-AG+G"
PLAY "T132MNO1L8B.>L16BP8L8BP16L64MLB-AG+GMNL8BBMLL64B>CC+DDDDDMN<"
PLAY "MLL64>GBGBGBGBP16GBGBGBGBP16GBGBGBGB"
PLAY "A>C+<A>C+<A>C+<A>C+<P16"
PLAY "A>C+<A>C+<A>C+<A>C+<P16"
PLAY "A>C+<A>C+<A>C+<A>C+<MN"


