DO
CLS
PRINT "MARIO THEME SONG"
PRINT
PRINT "1: 35"
PRINT "2: 60"
PRINT "3: 85"
PRINT "4: 100"
PRINT "5: 120"
PRINT "6: 150"
PRINT "7: 175"
PRINT "8: 200"
PRINT "9: 230"
PRINT "0: 255"
PRINT
INPUT "HOW FAST? ", A%
IF A% = 1 THEN B% = 35
IF A% = 2 THEN B% = 60
IF A% = 3 THEN B% = 85
IF A% = 4 THEN B% = 100
IF A% = 5 THEN B% = 120
IF A% = 6 THEN B% = 150
IF A% = 7 THEN B% = 175
IF A% = 8 THEN B% = 200
IF A% = 9 THEN B% = 230
IF A% = 0 THEN B% = 255
CLS
PRINT "THE SUPER MARIO BROS. THEME SONG IS NOW PLAYING AT"; B%; "BPM."
IF A% = 1 THEN GOTO 1
IF A% = 2 THEN GOTO 2
IF A% = 3 THEN GOTO 3
IF A% = 4 THEN GOTO 4
IF A% = 5 THEN GOTO 5
IF A% = 6 THEN GOTO 6
IF A% = 7 THEN GOTO 7
IF A% = 8 THEN GOTO 8
IF A% = 9 THEN GOTO 9
IF A% = 0 THEN GOTO 10
LOOP
1
PLAY "T35O3L16BL8BBL16GL8B>DP8<DP8GP16DP16<B>P16EF+L16FL8EL16DL8GL16B>L8EL16CL8D<BL16GAL8F+P16GP16DP16<BP16>EF+L16FL8EL16DL8GL16B>L8EL16CL8D<BL16GAL8F+P16P8>L16DC+C<L8B-BL16DEL8GL16EGAP8>L16DC+CL8<B-B>GL16GGP16P4L16DC+CL8<B-BL16DL8GL16EGAP8L8B-P16A"
PLAY "P16GP2L16>DC+C<L8B-BL16DEL8GL16EGAP8>L16DC+CL8<B-B>GL16GGP16P4L16DC+CL8<B-BL16DL8GL16EGAP8L8B-P16AP16GP2L16GL8GGL16GL8AL16BL8GL16EL4DL16GL8GGL16GAL2BP16L16GL8GGL16GL8AL16BL8GL16EL4DL16BL8BBL16GL8B>DP8<DP8"
PLAY "L16>EL8CL16<GP8L8G+L16A>L8FL16FL4<AL8B>L16AAL8AL16GFEL8C<L16AL4GL16>EL8CL16<GP8L8G+L16A>L8FL16F<L4AL16B>L8FL16FL8FL16EDL4CP4"
PLAY "L16EL8CL16<GP8L8G+L16A>L8FL16FL4<AL8B>L16AAL8AL16GFEL8C<L16AL4GL16>EL8CL16<GP8L8G+L16A>L8FL16F<L4AL16B>L8FL16FL8FL16EDL4CP4"
PLAY "L16CL8CL16CP17CL8DL16EL8CL16<AL4G>L16CL8CL16CP16CDEP2CL8CL16CP16CL8DL16EL8CL16<AL4G>L16EL8EL16EP16CL8EL4GP4                                                                                                                 "
PLAY "L16EL8CL16<GP8L8G+L16A>L8FL16FL4<AL8B>L16AAL8AL16GFEL8C<L16AL4GL16>EL8CL16<GP8L8G+L16A>L8FL16F<L4AL16B>L8FL16FL8FL16EDP4"
PLAY "TO3P8>L4C<L4GL5EL8ABAG+B-G+L16GFL1G"
END
2
PLAY "T60O3L16BL8BBL16GL8B>DP8<DP8GP16DP16<B>P16EF+L16FL8EL16DL8GL16B>L8EL16CL8D<BL16GAL8F+P16GP16DP16<BP16>EF+L16FL8EL16DL8GL16B>L8EL16CL8D<BL16GAL8F+P16P8>L16DC+C<L8B-BL16DEL8GL16EGAP8>L16DC+CL8<B-B>GL16GGP16P4L16DC+CL8<B-BL16DL8GL16EGAP8L8B-P16A"
PLAY "P16GP2L16>DC+C<L8B-BL16DEL8GL16EGAP8>L16DC+CL8<B-B>GL16GGP16P4L16DC+CL8<B-BL16DL8GL16EGAP8L8B-P16AP16GP2L16GL8GGL16GL8AL16BL8GL16EL4DL16GL8GGL16GAL2BP16L16GL8GGL16GL8AL16BL8GL16EL4DL16BL8BBL16GL8B>DP8<DP8"
PLAY "L16>EL8CL16<GP8L8G+L16A>L8FL16FL4<AL8B>L16AAL8AL16GFEL8C<L16AL4GL16>EL8CL16<GP8L8G+L16A>L8FL16F<L4AL16B>L8FL16FL8FL16EDL4CP4"
PLAY "L16EL8CL16<GP8L8G+L16A>L8FL16FL4<AL8B>L16AAL8AL16GFEL8C<L16AL4GL16>EL8CL16<GP8L8G+L16A>L8FL16F<L4AL16B>L8FL16FL8FL16EDL4CP4"
PLAY "L16CL8CL16CP17CL8DL16EL8CL16<AL4G>L16CL8CL16CP16CDEP2CL8CL16CP16CL8DL16EL8CL16<AL4G>L16EL8EL16EP16CL8EL4GP4                                                                                                                 "
PLAY "L16EL8CL16<GP8L8G+L16A>L8FL16FL4<AL8B>L16AAL8AL16GFEL8C<L16AL4GL16>EL8CL16<GP8L8G+L16A>L8FL16F<L4AT55L16B>L8FL16FT35L8FL16EDP4"
PLAY "T35O3P8>L4C<L4GL5EL8ABAG+B-G+L16GFL1G"
END
3
PLAY "T85O3L16BL8BBL16GL8B>DP8<DP8GP16DP16<B>P16EF+L16FL8EL16DL8GL16B>L8EL16CL8D<BL16GAL8F+P16GP16DP16<BP16>EF+L16FL8EL16DL8GL16B>L8EL16CL8D<BL16GAL8F+P16P8>L16DC+C<L8B-BL16DEL8GL16EGAP8>L16DC+CL8<B-B>GL16GGP16P4L16DC+CL8<B-BL16DL8GL16EGAP8L8B-P16A"
PLAY "P16GP2L16>DC+C<L8B-BL16DEL8GL16EGAP8>L16DC+CL8<B-B>GL16GGP16P4L16DC+CL8<B-BL16DL8GL16EGAP8L8B-P16AP16GP2L16GL8GGL16GL8AL16BL8GL16EL4DL16GL8GGL16GAL2BP16L16GL8GGL16GL8AL16BL8GL16EL4DL16BL8BBL16GL8B>DP8<DP8"
PLAY "L16>EL8CL16<GP8L8G+L16A>L8FL16FL4<AL8B>L16AAL8AL16GFEL8C<L16AL4GL16>EL8CL16<GP8L8G+L16A>L8FL16F<L4AL16B>L8FL16FL8FL16EDL4CP4"
PLAY "L16EL8CL16<GP8L8G+L16A>L8FL16FL4<AL8B>L16AAL8AL16GFEL8C<L16AL4GL16>EL8CL16<GP8L8G+L16A>L8FL16F<L4AL16B>L8FL16FL8FL16EDL4CP4"
PLAY "L16CL8CL16CP17CL8DL16EL8CL16<AL4G>L16CL8CL16CP16CDEP2CL8CL16CP16CL8DL16EL8CL16<AL4G>L16EL8EL16EP16CL8EL4GP4                                                                                                                 "
PLAY "L16EL8CL16<GP8L8G+L16A>L8FL16FL4<AL8B>L16AAL8AL16GFEL8C<L16AL4GL16>EL8CL16<GP8L8G+L16A>L8FL16F<L4AT80L16B>L8FL16FT55L8FL16EDP4"
PLAY "T45O3P8>L4C<L4GL5EL8ABAG+B-G+L16GFL1G"
END
4
PLAY "T100O3L16BL8BBL16GL8B>DP8<DP8GP16DP16<B>P16EF+L16FL8EL16DL8GL16B>L8EL16CL8D<BL16GAL8F+P16GP16DP16<BP16>EF+L16FL8EL16DL8GL16B>L8EL16CL8D<BL16GAL8F+P16P8>L16DC+C<L8B-BL16DEL8GL16EGAP8>L16DC+CL8<B-B>GL16GGP16P4L16DC+CL8<B-BL16DL8GL16EGAP8L8B-P16"
PLAY "AP16GP2L16>DC+C<L8B-BL16DEL8GL16EGAP8>L16DC+CL8<B-B>GL16GGP16P4L16DC+CL8<B-BL16DL8GL16EGAP8L8B-P16AP16GP2L16GL8GGL16GL8AL16BL8GL16EL4DL16GL8GGL16GAL2BP16L16GL8GGL16GL8AL16BL8GL16EL4DL16BL8BBL16GL8B>DP8<DP8"
PLAY "L16>EL8CL16<GP8L8G+L16A>L8FL16FL4<AL8B>L16AAL8AL16GFEL8C<L16AL4GL16>EL8CL16<GP8L8G+L16A>L8FL16F<L4AL16B>L8FL16FL8FL16EDL4CP4"
PLAY "L16EL8CL16<GP8L8G+L16A>L8FL16FL4<AL8B>L16AAL8AL16GFEL8C<L16AL4GL16>EL8CL16<GP8L8G+L16A>L8FL16F<L4AL16B>L8FL16FL8FL16EDL4CP4"
PLAY "L16CL8CL16CP17CL8DL16EL8CL16<AL4G>L16CL8CL16CP16CDEP2CL8CL16CP16CL8DL16EL8CL16<AL4G>L16EL8EL16EP16CL8EL4GP4                                                                                                                 "
PLAY "L16EL8CL16<GP8L8G+L16A>L8FL16FL4<AL8B>L16AAL8AL16GFEL8C<L16AL4GL16>EL8CL16<GP8L8G+L16A>L8FL16F<L4AT95L16B>L8FL16FT70L8FL16EDP4"
PLAY "T60O3P8>L4C<L4GL5EL8ABAG+B-G+L16GFL1G"
END
5
PLAY "T120O3L16BL8BBL16GL8B>DP8<DP8GP16DP16<B>P16EF+L16FL8EL16DL8GL16B>L8EL16CL8D<BL16GAL8F+P16GP16DP16<BP16>EF+L16FL8EL16DL8GL16B>L8EL16CL8D<BL16GAL8F+P16P8>L16DC+C<L8B-BL16DEL8GL16EGAP8>L16DC+CL8<B-B>GL16GGP16P4L16DC+CL8<B-BL16DL8GL16EGAP8L8B-P16"
PLAY "AP16GP2L16>DC+C<L8B-BL16DEL8GL16EGAP8>L16DC+CL8<B-B>GL16GGP16P4L16DC+CL8<B-BL16DL8GL16EGAP8L8B-P16AP16GP2L16GL8GGL16GL8AL16BL8GL16EL4DL16GL8GGL16GAL2BP16L16GL8GGL16GL8AL16BL8GL16EL4DL16BL8BBL16GL8B>DP8<DP8"
PLAY "L16>EL8CL16<GP8L8G+L16A>L8FL16FL4<AL8B>L16AAL8AL16GFEL8C<L16AL4GL16>EL8CL16<GP8L8G+L16A>L8FL16F<L4AL16B>L8FL16FL8FL16EDL4CP4"
PLAY "L16EL8CL16<GP8L8G+L16A>L8FL16FL4<AL8B>L16AAL8AL16GFEL8C<L16AL4GL16>EL8CL16<GP8L8G+L16A>L8FL16F<L4AL16B>L8FL16FL8FL16EDL4CP4"
PLAY "L16CL8CL16CP17CL8DL16EL8CL16<AL4G>L16CL8CL16CP16CDEP2CL8CL16CP16CL8DL16EL8CL16<AL4G>L16EL8EL16EP16CL8EL4GP4                                                                                                                 "
PLAY "L16EL8CL16<GP8L8G+L16A>L8FL16FL4<AL8B>L16AAL8AL16GFEL8C<L16AL4GL16>EL8CL16<GP8L8G+L16A>L8FL16F<L4AT115L16B>L8FL16FT90L8FL16EDP4"
PLAY "T80O3P8>L4C<L4GL5EL8ABAG+B-G+L16GFL1G"
END
6
PLAY "T150O3L16BL8BBL16GL8B>DP8<DP8GP16DP16<B>P16EF+L16FL8EL16DL8GL16B>L8EL16CL8D<BL16GAL8F+P16GP16DP16<BP16>EF+L16FL8EL16DL8GL16B>L8EL16CL8D<BL16GAL8F+P16P8>L16DC+C<L8B-BL16DEL8GL16EGAP8>L16DC+CL8<B-B>GL16GGP16P4L16DC+CL8<B-BL16DL8GL16EGAP8L8B-P16"
PLAY "AP16GP2L16>DC+C<L8B-BL16DEL8GL16EGAP8>L16DC+CL8<B-B>GL16GGP16P4L16DC+CL8<B-BL16DL8GL16EGAP8L8B-P16AP16GP2L16GL8GGL16GL8AL16BL8GL16EL4DL16GL8GGL16GAL2BP16L16GL8GGL16GL8AL16BL8GL16EL4DL16BL8BBL16GL8B>DP8<DP8"
PLAY "L16>EL8CL16<GP8L8G+L16A>L8FL16FL4<AL8B>L16AAL8AL16GFEL8C<L16AL4GL16>EL8CL16<GP8L8G+L16A>L8FL16F<L4AL16B>L8FL16FL8FL16EDL4CP4"
PLAY "L16EL8CL16<GP8L8G+L16A>L8FL16FL4<AL8B>L16AAL8AL16GFEL8C<L16AL4GL16>EL8CL16<GP8L8G+L16A>L8FL16F<L4AL16B>L8FL16FL8FL16EDL4CP4"
PLAY "L16CL8CL16CP17CL8DL16EL8CL16<AL4G>L16CL8CL16CP16CDEP2CL8CL16CP16CL8DL16EL8CL16<AL4G>L16EL8EL16EP16CL8EL4GP4                                                                                                                 "
PLAY "L16EL8CL16<GP8L8G+L16A>L8FL16FL4<AL8B>L16AAL8AL16GFEL8C<L16AL4GL16>EL8CL16<GP8L8G+L16A>L8FL16F<L4AT145L16B>L8FL16FT120L8FL16EDP4"
PLAY "T110O3P8>L4C<L4GL5EL8ABAG+B-G+L16GFL1G"
END
7
PLAY "T175O3L16BL8BBL16GL8B>DP8<DP8GP16DP16<B>P16EF+L16FL8EL16DL8GL16B>L8EL16CL8D<BL16GAL8F+P16GP16DP16<BP16>EF+L16FL8EL16DL8GL16B>L8EL16CL8D<BL16GAL8F+P16P8>L16DC+C<L8B-BL16DEL8GL16EGAP8>L16DC+CL8<B-B>GL16GGP16P4L16DC+CL8<B-BL16DL8GL16EGAP8L8B-P16"
PLAY "AP16GP2L16>DC+C<L8B-BL16DEL8GL16EGAP8>L16DC+CL8<B-B>GL16GGP16P4L16DC+CL8<B-BL16DL8GL16EGAP8L8B-P16AP16GP2L16GL8GGL16GL8AL16BL8GL16EL4DL16GL8GGL16GAL2BP16L16GL8GGL16GL8AL16BL8GL16EL4DL16BL8BBL16GL8B>DP8<DP8"
PLAY "L16>EL8CL16<GP8L8G+L16A>L8FL16FL4<AL8B>L16AAL8AL16GFEL8C<L16AL4GL16>EL8CL16<GP8L8G+L16A>L8FL16F<L4AL16B>L8FL16FL8FL16EDL4CP4"
PLAY "L16EL8CL16<GP8L8G+L16A>L8FL16FL4<AL8B>L16AAL8AL16GFEL8C<L16AL4GL16>EL8CL16<GP8L8G+L16A>L8FL16F<L4AL16B>L8FL16FL8FL16EDL4CP4"
PLAY "L16CL8CL16CP17CL8DL16EL8CL16<AL4G>L16CL8CL16CP16CDEP2CL8CL16CP16CL8DL16EL8CL16<AL4G>L16EL8EL16EP16CL8EL4GP4                                                                                                                 "
PLAY "L16EL8CL16<GP8L8G+L16A>L8FL16FL4<AL8B>L16AAL8AL16GFEL8C<L16AL4GL16>EL8CL16<GP8L8G+L16A>L8FL16F<L4AT170L16B>L8FL16FT145L8FL16EDP4"
PLAY "T135O3P8>L4C<L4GL5EL8ABAG+B-G+L16GFL1G"
END
8
PLAY "T200O3L16BL8BBL16GL8B>DP8<DP8GP16DP16<B>P16EF+L16FL8EL16DL8GL16B>L8EL16CL8D<BL16GAL8F+P16GP16DP16<BP16>EF+L16FL8EL16DL8GL16B>L8EL16CL8D<BL16GAL8F+P16P8>L16DC+C<L8B-BL16DEL8GL16EGAP8>L16DC+CL8<B-B>GL16GGP16P4L16DC+CL8<B-BL16DL8GL16EGAP8L8B-P16"
PLAY "AP16GP2L16>DC+C<L8B-BL16DEL8GL16EGAP8>L16DC+CL8<B-B>GL16GGP16P4L16DC+CL8<B-BL16DL8GL16EGAP8L8B-P16AP16GP2L16GL8GGL16GL8AL16BL8GL16EL4DL16GL8GGL16GAL2BP16L16GL8GGL16GL8AL16BL8GL16EL4DL16BL8BBL16GL8B>DP8<DP8"
PLAY "L16>EL8CL16<GP8L8G+L16A>L8FL16FL4<AL8B>L16AAL8AL16GFEL8C<L16AL4GL16>EL8CL16<GP8L8G+L16A>L8FL16F<L4AL16B>L8FL16FL8FL16EDL4CP4"
PLAY "L16EL8CL16<GP8L8G+L16A>L8FL16FL4<AL8B>L16AAL8AL16GFEL8C<L16AL4GL16>EL8CL16<GP8L8G+L16A>L8FL16F<L4AL16B>L8FL16FL8FL16EDL4CP4"
PLAY "L16CL8CL16CP17CL8DL16EL8CL16<AL4G>L16CL8CL16CP16CDEP2CL8CL16CP16CL8DL16EL8CL16<AL4G>L16EL8EL16EP16CL8EL4GP4                                                                                                                 "
PLAY "L16EL8CL16<GP8L8G+L16A>L8FL16FL4<AL8B>L16AAL8AL16GFEL8C<L16AL4GL16>EL8CL16<GP8L8G+L16A>L8FL16F<L4AT195L16B>L8FL16FT170L8FL16EDP4"
PLAY "T160O3P8>L4C<L4GL5EL8ABAG+B-G+L16GFL1G"
END
9
PLAY "T230O3L16BL8BBL16GL8B>DP8<DP8GP16DP16<B>P16EF+L16FL8EL16DL8GL16B>L8EL16CL8D<BL16GAL8F+P16GP16DP16<BP16>EF+L16FL8EL16DL8GL16B>L8EL16CL8D<BL16GAL8F+P16P8>L16DC+C<L8B-BL16DEL8GL16EGAP8>L16DC+CL8<B-B>GL16GGP16P4L16DC+CL8<B-BL16DL8GL16EGAP8L8B-P16"
PLAY "AP16GP2L16>DC+C<L8B-BL16DEL8GL16EGAP8>L16DC+CL8<B-B>GL16GGP16P4L16DC+CL8<B-BL16DL8GL16EGAP8L8B-P16AP16GP2L16GL8GGL16GL8AL16BL8GL16EL4DL16GL8GGL16GAL2BP16L16GL8GGL16GL8AL16BL8GL16EL4DL16BL8BBL16GL8B>DP8<DP8"
PLAY "L16>EL8CL16<GP8L8G+L16A>L8FL16FL4<AL8B>L16AAL8AL16GFEL8C<L16AL4GL16>EL8CL16<GP8L8G+L16A>L8FL16F<L4AL16B>L8FL16FL8FL16EDL4CP4"
PLAY "L16EL8CL16<GP8L8G+L16A>L8FL16FL4<AL8B>L16AAL8AL16GFEL8C<L16AL4GL16>EL8CL16<GP8L8G+L16A>L8FL16F<L4AL16B>L8FL16FL8FL16EDL4CP4"
PLAY "L16CL8CL16CP17CL8DL16EL8CL16<AL4G>L16CL8CL16CP16CDEP2CL8CL16CP16CL8DL16EL8CL16<AL4G>L16EL8EL16EP16CL8EL4GP4                                                                                                                 "
PLAY "L16EL8CL16<GP8L8G+L16A>L8FL16FL4<AL8B>L16AAL8AL16GFEL8C<L16AL4GL16>EL8CL16<GP8L8G+L16A>L8FL16F<L4AT225L16B>L8FL16FT200L8FL16EDP4"
PLAY "T190O3P8>L4C<L4GL5EL8ABAG+B-G+L16GFL1G"
END
10
PLAY "T255O3L16BL8BBL16GL8B>DP8<DP8GP16DP16<B>P16EF+L16FL8EL16DL8GL16B>L8EL16CL8D<BL16GAL8F+P16GP16DP16<BP16>EF+L16FL8EL16DL8GL16B>L8EL16CL8D<BL16GAL8F+P16P8>L16DC+C<L8B-BL16DEL8GL16EGAP8>L16DC+CL8<B-B>GL16GGP16P4L16DC+CL8<B-BL16DL8GL16EGAP8L8B-P16"
PLAY "AP16GP2L16>DC+C<L8B-BL16DEL8GL16EGAP8>L16DC+CL8<B-B>GL16GGP16P4L16DC+CL8<B-BL16DL8GL16EGAP8L8B-P16AP16GP2L16GL8GGL16GL8AL16BL8GL16EL4DL16GL8GGL16GAL2BP16L16GL8GGL16GL8AL16BL8GL16EL4DL16BL8BBL16GL8B>DP8<DP8"
PLAY "L16>EL8CL16<GP8L8G+L16A>L8FL16FL4<AL8B>L16AAL8AL16GFEL8C<L16AL4GL16>EL8CL16<GP8L8G+L16A>L8FL16F<L4AL16B>L8FL16FL8FL16EDL4CP4"
PLAY "L16EL8CL16<GP8L8G+L16A>L8FL16FL4<AL8B>L16AAL8AL16GFEL8C<L16AL4GL16>EL8CL16<GP8L8G+L16A>L8FL16F<L4AL16B>L8FL16FL8FL16EDL4CP4"
PLAY "L16CL8CL16CP17CL8DL16EL8CL16<AL4G>L16CL8CL16CP16CDEP2CL8CL16CP16CL8DL16EL8CL16<AL4G>L16EL8EL16EP16CL8EL4GP4                                                                                                                 "
PLAY "L16EL8CL16<GP8L8G+L16A>L8FL16FL4<AL8B>L16AAL8AL16GFEL8C<L16AL4GL16>EL8CL16<GP8L8G+L16A>L8FL16F<L4AT250L16B>L8FL16FT225L8FL16EDP4"
PLAY "T215O3P8>L4C<L4GL5EL8ABAG+B-G+L16GFL1G"
END

